<?xml version="1.0" standalone="no"?>
<!DOCTYPE svg PUBLIC "-//W3C//DTD SVG 20010904//EN"
 "http://www.w3.org/TR/2001/REC-SVG-20010904/DTD/svg10.dtd">
<svg version="1.0" xmlns="http://www.w3.org/2000/svg"
 width="200.000000pt" height="200.000000pt" viewBox="0 0 200.000000 200.000000"
 preserveAspectRatio="xMidYMid meet">
<metadata>
Created by potrace 1.15, written by Peter Selinger 2001-2017
</metadata>
<g transform="translate(0.000000,200.000000) scale(0.100000,-0.100000)"
fill="#000000" stroke="none">
<path d="M240 1431 c-16 -30 -14 -842 3 -864 11 -16 55 -17 587 -15 l575 3 3
152 3 152 175 -134 c96 -74 177 -135 179 -135 3 0 5 184 5 410 0 226 -2 410
-5 410 -3 0 -84 -61 -180 -135 l-174 -134 -3 152 -3 152 -577 3 c-563 2 -577
2 -588 -17z"/>
</g>
</svg>
